<?xml version="1.0" standalone="no"?>
<!DOCTYPE svg PUBLIC "-//W3C//DTD SVG 20010904//EN"
 "http://www.w3.org/TR/2001/REC-SVG-20010904/DTD/svg10.dtd">
<svg version="1.0" xmlns="http://www.w3.org/2000/svg"
 width="16.000000pt" height="16.000000pt" viewBox="0 0 16.000000 16.000000"
 preserveAspectRatio="xMidYMid meet">
<metadata>
Created by potrace 1.11, written by Peter Selinger 2001-2013
</metadata>
<g transform="translate(0.000000,16.000000) scale(0.000897,-0.000897)"
fill="#000000" stroke="none">
<path d="M6198 15445 c-2 -2 -48 -6 -103 -10 -55 -3 -120 -8 -145 -11 -98 -9
-236 -24 -259 -29 -9 -1 -41 -6 -71 -10 -69 -8 -108 -14 -140 -20 -14 -3 -41
-7 -60 -10 -19 -3 -46 -8 -60 -10 -14 -3 -36 -7 -50 -10 -14 -3 -36 -7 -50
-10 -14 -3 -36 -7 -50 -10 -311 -59 -731 -185 -1095 -330 -315 -125 -561 -245
-891 -435 -67 -39 -184 -111 -250 -155 -38 -25 -76 -50 -84 -55 -8 -6 -46 -33
-85 -60 -38 -28 -86 -61 -105 -74 -51 -34 -308 -235 -393 -307 -294 -252 -615
-580 -857 -879 -390 -482 -749 -1090 -970 -1645 -18 -44 -36 -89 -41 -100 -44
-98 -164 -468 -225 -695 -34 -124 -105 -455 -118 -545 -4 -23 -8 -50 -10 -62
-3 -12 -8 -43 -12 -70 -3 -26 -8 -55 -9 -63 -2 -9 -6 -43 -10 -75 -4 -33 -9
-71 -11 -85 -2 -14 -7 -56 -10 -95 -3 -38 -7 -83 -9 -100 -27 -208 -27 -948 0
-1150 2 -16 7 -59 10 -95 5 -58 30 -252 41 -322 2 -16 6 -40 8 -55 31 -200
109 -548 176 -778 49 -169 154 -476 194 -570 7 -16 21 -50 31 -75 10 -25 28
-67 40 -95 12 -27 33 -75 46 -105 75 -178 272 -547 413 -775 330 -532 785
-1068 1251 -1470 31 -27 63 -55 69 -61 93 -87 455 -358 634 -474 59 -39 112
-73 118 -78 17 -12 42 -27 189 -114 162 -95 471 -253 630 -323 61 -26 124 -54
140 -61 200 -87 658 -244 815 -279 8 -2 71 -18 140 -35 136 -34 271 -63 365
-80 33 -5 71 -12 85 -15 14 -3 39 -7 55 -9 47 -7 107 -16 140 -21 17 -3 50 -7
75 -10 25 -3 59 -8 75 -10 17 -2 64 -7 105 -10 41 -4 86 -9 100 -11 155 -26
884 -25 1145 1 22 2 69 7 105 10 36 3 128 15 205 26 148 20 153 21 255 40 36
6 78 13 94 15 16 2 45 8 65 13 20 6 47 12 61 14 230 41 791 209 1025 307 11 5
76 32 145 61 219 91 526 244 768 384 249 144 630 410 855 599 352 294 653 598
922 931 53 66 102 127 110 136 24 30 211 293 250 352 21 32 41 54 45 50 4 -4
38 -53 75 -108 63 -93 93 -135 113 -160 5 -6 26 -34 46 -63 33 -48 171 -223
222 -282 12 -14 52 -61 90 -105 164 -191 468 -495 640 -640 32 -27 61 -52 64
-56 3 -3 64 -53 135 -110 160 -129 349 -266 503 -366 65 -42 128 -83 142 -93
122 -83 584 -327 785 -415 61 -26 128 -55 150 -65 327 -146 914 -320 1310
-390 33 -5 71 -12 85 -15 14 -3 39 -7 55 -9 47 -7 107 -16 140 -21 17 -3 50
-7 75 -10 25 -3 59 -8 75 -10 17 -2 64 -7 105 -10 41 -4 86 -9 100 -11 64 -11
299 -19 545 -19 l270 0 3 903 c2 718 0 902 -10 902 -61 -1 -513 10 -548 14
-25 2 -72 7 -105 10 -71 7 -129 15 -242 32 -107 15 -273 49 -398 80 -77 20
-148 37 -158 39 -9 2 -21 6 -25 9 -5 3 -19 7 -33 10 -13 2 -43 11 -67 20 -23
8 -44 16 -47 16 -12 2 -42 12 -57 21 -10 5 -24 9 -31 9 -12 0 -56 16 -152 55
-11 5 -22 9 -25 10 -6 2 -23 9 -105 43 -91 37 -140 59 -255 117 -165 83 -215
109 -220 116 -3 4 -26 16 -52 28 -27 12 -48 25 -48 29 0 4 -13 13 -29 20 -34
15 -123 73 -132 85 -3 5 -8 7 -10 5 -10 -8 -369 258 -450 334 -11 10 -21 18
-23 18 -8 0 -130 115 -271 255 -143 143 -215 222 -315 345 -25 30 -55 66 -67
80 -13 14 -23 28 -23 32 0 7 -14 26 -45 62 -5 6 -26 34 -45 61 -19 28 -40 56
-46 63 -7 6 -16 21 -19 32 -3 11 -11 20 -16 20 -5 0 -9 7 -9 15 0 8 -4 15 -10
15 -5 0 -10 6 -10 13 0 8 -9 22 -20 32 -10 9 -18 20 -18 24 1 3 -14 31 -33 61
-20 30 -50 80 -66 110 -89 162 -121 222 -153 290 -19 41 -38 77 -42 78 -5 2
-8 8 -8 13 0 5 -23 63 -50 129 -128 303 -235 650 -270 875 -6 33 -12 74 -15
90 -18 94 -33 192 -34 205 0 8 -3 47 -7 85 -3 39 -7 79 -8 90 -1 11 -5 26 -9
33 -5 7 -3 12 5 12 10 0 10 2 -1 9 -7 5 -10 14 -7 20 4 6 3 11 -1 11 -13 0
-17 89 -17 375 -1 302 8 465 26 477 9 5 9 8 1 8 -6 0 -10 8 -8 18 1 9 6 50 10
90 4 40 11 74 15 77 4 2 6 18 5 35 -1 16 2 30 7 30 5 0 6 5 3 10 -4 6 -1 18 7
27 9 12 9 15 1 9 -13 -7 -18 6 -7 17 4 4 8 23 10 44 3 21 6 45 8 53 2 8 7 34
11 57 4 24 10 41 14 39 3 -2 6 10 5 27 -1 18 3 46 8 62 5 17 11 41 14 55 28
139 157 527 225 677 10 24 19 45 19 48 0 8 60 136 115 245 88 175 110 215 118
218 4 2 7 8 7 13 0 6 16 35 35 65 19 30 35 59 35 64 0 6 5 10 10 10 6 0 10 4
10 9 0 9 158 250 170 261 3 3 17 21 30 40 13 19 27 37 30 40 3 3 27 34 55 70
27 36 54 70 60 76 5 7 19 22 29 35 36 45 151 174 181 204 16 16 29 33 27 37
-1 5 1 8 6 8 4 0 59 51 123 113 63 61 137 131 164 154 28 23 66 55 85 71 66
57 78 67 105 86 14 11 35 27 45 35 10 9 28 23 40 31 12 8 28 20 34 26 19 18
299 206 316 212 8 3 23 11 32 19 17 15 83 54 128 76 14 6 27 14 30 18 6 8 218
115 330 167 255 119 706 270 915 308 17 3 50 10 75 15 25 6 56 13 70 15 14 2
36 7 50 9 77 16 276 44 355 51 33 3 78 7 100 10 32 4 473 15 548 14 16 0 17
52 17 960 l0 960 -317 -4 c-175 -3 -347 -7 -383 -10 -249 -21 -507 -51 -610
-71 -14 -3 -38 -7 -55 -9 -60 -9 -245 -46 -370 -75 -49 -12 -101 -24 -115 -27
-50 -11 -279 -77 -400 -115 -467 -148 -953 -369 -1380 -628 -119 -71 -182
-111 -205 -128 -6 -5 -51 -35 -100 -68 -50 -33 -95 -64 -101 -70 -6 -5 -22
-17 -34 -25 -59 -39 -276 -207 -370 -286 -102 -85 -125 -106 -254 -224 -74
-68 -301 -294 -379 -379 -173 -187 -440 -525 -591 -749 -38 -56 -73 -99 -76
-95 -4 5 -38 53 -75 108 -112 163 -345 472 -410 541 -5 6 -37 42 -70 80 -293
335 -614 633 -994 924 -259 198 -644 438 -961 599 -124 64 -443 211 -455 211
-3 0 -27 9 -53 21 -99 44 -113 49 -125 49 -7 0 -25 7 -41 15 -38 20 -418 144
-561 183 -114 32 -325 82 -430 102 -33 7 -80 16 -105 21 -25 5 -61 11 -80 14
-19 3 -61 10 -92 16 -32 5 -74 12 -95 14 -21 2 -58 6 -83 10 -25 3 -65 8 -90
10 -25 3 -58 8 -75 10 -16 3 -68 7 -115 11 -47 4 -105 8 -130 11 -50 5 -768
12 -772 8z"/>
<path d="M17318 12275 c-2 -1 -41 -6 -88 -9 -47 -4 -94 -9 -105 -11 -11 -3
-40 -7 -65 -10 -89 -10 -262 -45 -417 -86 -558 -146 -1083 -449 -1498 -864
-126 -126 -172 -176 -232 -252 -15 -20 -33 -41 -38 -47 -46 -48 -199 -273
-277 -406 -126 -214 -294 -610 -323 -760 -2 -12 -9 -37 -14 -54 -13 -38 -67
-286 -76 -341 -34 -231 -40 -301 -40 -540 0 -237 8 -358 37 -520 5 -33 12 -73
15 -90 2 -16 14 -70 25 -120 11 -49 21 -97 23 -106 2 -8 17 -63 34 -122 96
-331 249 -660 435 -931 34 -49 66 -96 71 -104 6 -9 17 -25 27 -36 9 -12 53
-68 98 -125 115 -145 431 -458 490 -485 11 -5 20 -13 20 -17 0 -4 15 -17 33
-28 18 -11 44 -29 57 -40 14 -12 30 -24 35 -29 6 -4 51 -35 100 -68 360 -242
762 -410 1186 -498 290 -59 401 -71 679 -71 219 0 249 7 285 68 19 31 20 57
23 592 2 308 0 579 -3 603 -5 30 -16 53 -40 77 -39 39 -54 42 -250 50 -112 4
-260 22 -330 39 -11 2 -40 9 -65 15 -79 18 -251 81 -357 131 -342 161 -618
401 -826 715 -131 199 -258 509 -292 713 -3 17 -8 47 -11 65 -13 80 -16 123
-19 292 -3 160 0 212 20 345 34 229 134 498 265 715 50 84 152 227 187 263 10
10 37 38 59 63 236 252 523 434 859 544 184 61 300 81 515 90 192 9 206 12
245 50 24 24 36 47 40 77 3 24 5 295 3 603 -3 535 -4 561 -23 592 -36 60 -67
68 -282 69 -106 1 -193 0 -195 -1z"/>
</g>
</svg>
